<svg width="334" height="56" viewBox="0 0 334 56" fill="none" xmlns="http://www.w3.org/2000/svg">
<rect x="139" width="56" height="56" rx="28" fill="#EFF6FF"/>
<path d="M177.667 25.3334C177.667 31.9907 170.281 38.9241 167.801 41.0654C167.57 41.2391 167.289 41.3331 167 41.3331C166.711 41.3331 166.43 41.2391 166.199 41.0654C163.719 38.9241 156.333 31.9907 156.333 25.3334C156.333 22.5044 157.457 19.7913 159.458 17.7909C161.458 15.7906 164.171 14.6667 167 14.6667C169.829 14.6667 172.542 15.7906 174.542 17.7909C176.543 19.7913 177.667 22.5044 177.667 25.3334Z" stroke="#2563EB" stroke-width="2.66667" stroke-linecap="round" stroke-linejoin="round"/>
<path d="M167 29.3333C169.209 29.3333 171 27.5424 171 25.3333C171 23.1241 169.209 21.3333 167 21.3333C164.791 21.3333 163 23.1241 163 25.3333C163 27.5424 164.791 29.3333 167 29.3333Z" stroke="#2563EB" stroke-width="2.66667" stroke-linecap="round" stroke-linejoin="round"/>
</svg>
