<svg width="334" height="56" viewBox="0 0 334 56" fill="none" xmlns="http://www.w3.org/2000/svg">
<rect x="139" width="56" height="56" rx="28" fill="#EFF6FF"/>
<path d="M175 14.6667H159C157.527 14.6667 156.333 15.8607 156.333 17.3334V38.6667C156.333 40.1395 157.527 41.3334 159 41.3334H175C176.473 41.3334 177.667 40.1395 177.667 38.6667V17.3334C177.667 15.8607 176.473 14.6667 175 14.6667Z" stroke="#16A34A" stroke-width="2.66667" stroke-linecap="round" stroke-linejoin="round"/>
<path d="M161.667 20H172.333" stroke="#16A34A" stroke-width="2.66667" stroke-linecap="round" stroke-linejoin="round"/>
<path d="M172.333 30.6667V36.0001" stroke="#16A34A" stroke-width="2.66667" stroke-linecap="round" stroke-linejoin="round"/>
<path d="M172.333 25.3333H172.347" stroke="#16A34A" stroke-width="2.66667" stroke-linecap="round" stroke-linejoin="round"/>
<path d="M167 25.3333H167.013" stroke="#16A34A" stroke-width="2.66667" stroke-linecap="round" stroke-linejoin="round"/>
<path d="M161.667 25.3333H161.68" stroke="#16A34A" stroke-width="2.66667" stroke-linecap="round" stroke-linejoin="round"/>
<path d="M167 30.6667H167.013" stroke="#16A34A" stroke-width="2.66667" stroke-linecap="round" stroke-linejoin="round"/>
<path d="M161.667 30.6667H161.68" stroke="#16A34A" stroke-width="2.66667" stroke-linecap="round" stroke-linejoin="round"/>
<path d="M167 36H167.013" stroke="#16A34A" stroke-width="2.66667" stroke-linecap="round" stroke-linejoin="round"/>
<path d="M161.667 36H161.68" stroke="#16A34A" stroke-width="2.66667" stroke-linecap="round" stroke-linejoin="round"/>
</svg>
